#N canvas 0 25 1440 847 12;
#X declare -path /Users/sarahalmamoun/Documents/Pd/externals;
#X obj 183 325 bng 19 250 50 0 empty empty empty 0 -10 0 12 #fcfcfc #000000 #000000;
#X obj 23 12 cnv 15 650 120 empty empty Sonification\ des\ plantes 20 12 0 14 #c6ffc7 #404040 0;
#X obj 22 144 cnv 15 430 100 empty empty empty 20 12 0 14 #fcfcc4 #404040 0;
#X msg 550 196 close;
#X obj 485 220 s port-commands;
#X msg 485 196 devices;
#X floatatom 1992 598 5 0 0 0 - - - 0;
#X obj 2006 471 tgl 19 0 empty empty empty 0 -10 0 12 #fcfcfc #000000 #000000 0 1;
#X obj 2009 502 metro;
#X obj 1804 641 loadbang;
#X msg 1805 666 5;
#X floatatom 1803 692 5 0 0 0 - - - 0;
#X obj 806 1891 dac~ 1 2;
#X obj 1558 695 *~ 20;
#X floatatom 1558 635 5 0 0 0 - - - 0;
#X obj 1557 660 phasor~;
#X obj 1801 777 cnv 15 150 30 empty empty lowpass\ filter 20 12 0 14 #fcfcc4 #404040 0;
#X obj 1396 659 cnv 15 150 30 empty empty LFO 20 12 0 14 #fcfcc4 #404040 0;
#X text 1427 695 amplitude control;
#X text 482 146 Print a list of serial ports to console, f 16;
#X obj 1588 450 vsl 19 162 -10 50 0 0 empty empty LFO\ rate 0 -9 0 12 #ffffff #00ff04 #2f004d 0 1;
#X obj 2010 535 random 10;
#X msg 667 1393 0;
#X obj 562 1408 noise~;
#X obj 602 1440 *~;
#X msg 427 1378 0;
#X obj 368 1424 *~;
#X obj 386 1308 metro 700;
#X obj 413 1533 freeverb~;
#X obj 386 1279 tgl 18 0 empty empty empty 17 7 0 10 #fcfcfc #000000 #000000 0 1;
#X obj 620 1275 tgl 18 0 empty empty empty 17 7 0 10 #fcfcfc #000000 #000000 0 1;
#X obj 716 71 tgl 50 0 empty empty empty 17 7 0 10 #c6ffc7 #2f004d #ffc7c6 0 1;
#X obj 617 1322 metro 1400;
#X obj 427 1351 delay 200;
#X text 252 21 Demonstration of communicating with an Arduino Uno running the osc_test skech. Messages are received over serial.;
#X obj 600 1519 send~ noise;
#X obj 922 1829 receive~ noise;
#X obj 707 175 bng 19 250 50 0 empty empty empty 0 -10 0 12 #fcfcfc #000000 #000000;
#X msg 707 197 0, f 2;
#X text 668 196 reset;
#X obj 707 153 loadbang;
#X obj 707 219 s reset;
#X obj 711 24 r reset;
#X obj 1522 392 r reset;
#X text 1850 693 Filter control;
#X obj 651 1271 cnv 15 150 30 empty empty white\ noise 20 12 0 14 #fcfcc4 #404040 0;
#X obj 223 1278 cnv 15 150 30 empty empty oscillator 20 12 0 14 #fcfcc4 #404040 0;
#X obj 1924 429 cnv 15 200 30 empty empty random\ blip\ bloop\  20 12 0 14 #fcfcc4 #404040 0;
#X obj 1905 536 r temperature;
#X obj 1726 814 send~ lfo;
#X obj 803 1828 receive~ reverb;
#X obj 706 1828 receive~ lfo;
#X obj 1725 775 vcf~ 1000;
#X msg 617 1365 0.1;
#X obj 58 506 bng 19 250 50 0 empty empty empty 0 -10 0 12 #fcfcfc #000000 #000000;
#X obj 60 372 oscparse;
#X obj 33 616 vsl 100 162 0 1023 0 0 empty empty empty 0 -9 0 12 #fcfcfc #000000 #000000 0 1;
#X obj 58 531 change;
#X floatatom 58 556 5 0 0 0 - - - 0;
#X obj 60 402 list trim;
#X obj 58 481 route temperature;
#X obj 203 481 route humidite;
#X obj 203 507 bng 19 250 50 0 empty empty empty 0 -10 0 12 #fcfcfc #000000 #000000;
#X obj 197 614 vsl 100 162 0 1023 0 0 empty empty empty 0 -9 0 12 #fcfcfc #000000 #000000 0 1;
#X obj 203 532 change;
#X floatatom 203 557 5 0 0 0 - - - 0;
#X obj 328 507 bng 19 250 50 0 empty empty empty 0 -10 0 12 #fcfcfc #000000 #000000;
#X obj 347 614 vsl 100 162 0 1023 0 0 empty empty empty 0 -9 0 12 #fcfcfc #000000 #000000 0 1;
#X obj 328 532 change;
#X floatatom 328 557 5 0 0 0 - - - 0;
#X obj 328 481 route conductance;
#X obj 86 884 s temperature;
#X obj 3023 399 cnv 15 200 30 empty empty trigger\ de\ quelque\ chose 20 12 0 14 #fcfcc4 #404040 0;
#X obj 3073 444 r temperature;
#X obj 3137 549 <;
#X obj 3073 545 >;
#X floatatom 3157 480 5 0 0 0 - - - 0;
#X floatatom 3073 481 5 0 0 0 - - - 0;
#X obj 3072 575 tgl 19 0 empty empty empty 17 7 0 10 #dfdfdf #000000 #000000 0 1;
#X obj 3137 577 tgl 19 0 empty empty empty 17 7 0 10 #dfdfdf #000000 #000000 0 1;
#X obj 957 28 declare -path /Users/sarahalmamoun/Documents/Pd/externals;
#X obj 153 1103 vsl 100 162 200 400 0 0 empty empty empty 0 -9 0 12 #fcfcfc #00ff04 #000000 0 1;
#X obj 317 1392 osc~;
#X msg 890 639 0;
#X obj 800 686 *~;
#X obj 639 385 cnv 15 150 30 empty empty mapping\ direct 20 12 0 14 #fcfcc4 #404040 0;
#X obj 799 642 osc~;
#X obj 601 1830 receive~ osc;
#X obj 791 742 dac~;
#X msg 387 1362 0.5;
#X obj 890 612 r reset;
#X obj 853 598 bng 19 250 50 0 empty empty empty 0 -10 0 12 #fcfcfc #000000 #000000;
#X obj 798 459 vsl 19 162 200 500 0 0 empty empty empty 0 -9 0 12 #ffffff #00ff04 #000000 0 1;
#X text 694 687 volume control;
#X text 700 743 audio output;
#X msg 848 640 0.1;
#X msg 1282 633 0;
#X obj 1171 680 *~;
#X obj 1162 736 dac~;
#X obj 1282 606 r reset;
#X obj 1238 457 vsl 19 162 0 0.5 0 0 empty empty empty 0 -9 0 12 #ffffff #00ff04 #000000 0 1;
#X text 1065 681 volume control;
#X text 1071 737 audio output;
#X obj 1170 636 osc~ 350;
#X floatatom 1238 635 5 0 0 0 - - - 0;
#X obj 1097 373 cnv 15 150 30 empty empty mapping\ direct 20 12 0 14 #fcfcc4 #404040 0;
#X text 653 405 température → fréquence de l’oscillateur;
#X text 1114 408 température → volume;
#X text 36 143 Sélectionnez le port série approprié ci-dessous pour vous connecter à Arduino \, ou modifiez un message pour définir le port série d'Arduino défini sur votre machine. Si vous n'êtes pas sûr du format des noms de device \, le bouton [devices ( à droite) imprimera les noms de périphériques connus sur la console.;
#X obj 2481 363 cnv 15 200 30 empty empty reverberated\ noise 20 12 0 14 #fcfcc4 #404040 0;
#X obj 1033 1826 receive~ combination;
#X obj 414 1598 send~ combination;
#X msg 119 1482 roomsize \$1;
#X msg 118 1544 damping \$1;
#X msg 119 1601 width \$1;
#X msg 121 1657 wet \$1;
#X msg 122 1709 dry \$1;
#X obj 59 1683 hsl 60 18 0 1 0 1 empty empty dry 2 9 1 12 #d8fcd8 #000000 #000000 1400 0;
#X obj 58 1631 hsl 60 18 0 1 0 1 empty empty wet 2 9 1 12 #d8fcd8 #000000 #000000 5900 0;
#X obj 56 1575 hsl 60 18 0 1 0 1 empty empty width 2 9 1 12 #fcfcc8 #000000 #000000 2900 0;
#X obj 55 1518 hsl 60 18 0 2 0 1 empty empty damping 2 9 1 12 #fce0e0 #000000 #000000 4800 0;
#X obj 56 1456 hsl 60 18 0.11 1.1 0 1 empty empty roomsize 2 9 1 12 #fce0e0 #000000 #000000 4900 0;
#X floatatom 55 1481 3 0 0 0 - - - 0;
#X floatatom 54 1543 3 0 0 0 - - - 0;
#X floatatom 55 1601 3 0 0 0 - - - 0;
#X floatatom 57 1656 3 0 0 0 - - - 0;
#X floatatom 58 1708 3 0 0 0 - - - 0;
#X msg 1522 359 0;
#X floatatom 1757 556 5 0 0 0 - - - 0;
#X obj 1778 465 tgl 19 0 empty empty empty 0 -10 0 12 #fcfcfc #000000 #000000 0 1;
#X obj 1778 493 metro;
#X obj 1657 331 cnv 15 250 30 empty empty sonification\ rythmique\  20 12 0 14 #fcfcc4 #404040 0;
#X obj 424 1147 cnv 15 150 30 empty empty un\ combinaison! 20 12 0 14 #fcfcc4 #404040 0;
#X obj 56 256 comport /dev/cu.usbmodem1101 115200;
#X obj 65 325 slipdec;
#X obj 1993 565 + 1;
#X obj 255 883 send humidite;
#X obj 2662 497 delay 120;
#X msg 2662 526 0;
#X obj 2597 573 *~;
#X obj 2509 700 freeverb~;
#X obj 2611 414 tgl 18 0 empty empty empty 17 7 0 10 #fcfcfc #000000 #000000 0 1;
#X obj 2612 455 metro 1400;
#X obj 2510 765 send~ reverb;
#X msg 2613 505 0.1;
#X msg 2461 534 wet \$1;
#X obj 2422 510 hsl 60 18 0 1 0 1 empty empty wet 2 9 1 12 #d8fcd8 #000000 #000000 1200 0;
#X floatatom 2420 535 3 0 0 0 - - - 0;
#X msg 2464 593 dry \$1;
#X obj 2422 568 hsl 60 18 0 1 0 1 empty empty dry 2 9 1 12 #d8fcd8 #000000 #000000 2500 0;
#X floatatom 2421 593 3 0 0 0 - - - 0;
#X msg 2464 654 roomsize \$1;
#X obj 2422 628 hsl 60 18 0.11 1.1 0 1 empty empty roomsize 2 9 1 12 #fce0e0 #000000 #000000 2700 0;
#X floatatom 2421 653 3 0 0 0 - - - 0;
#X obj 2537 468 noise~;
#X obj 2360 403 r humidite;
#X floatatom 2360 428 5 0 0 0 - - - 0;
#X floatatom 2365 492 5 0 0 0 - - - 0;
#X obj 2364 457 / 1000;
#X obj 667 1364 delay 100;
#X connect 3 0 4 0;
#X connect 5 0 4 0;
#X connect 6 0 52 1;
#X connect 7 0 8 0;
#X connect 8 0 21 0;
#X connect 9 0 10 0;
#X connect 10 0 11 0;
#X connect 11 0 52 2;
#X connect 13 0 52 0;
#X connect 14 0 15 0;
#X connect 15 0 13 0;
#X connect 20 0 14 0;
#X connect 21 0 135 0;
#X connect 22 0 24 1;
#X connect 23 0 24 0;
#X connect 24 0 35 0;
#X connect 24 0 28 1;
#X connect 25 0 26 1;
#X connect 26 0 28 0;
#X connect 27 0 89 0;
#X connect 27 0 33 0;
#X connect 28 0 111 0;
#X connect 28 1 111 0;
#X connect 29 0 27 0;
#X connect 30 0 32 0;
#X connect 32 0 53 0;
#X connect 32 0 159 0;
#X connect 33 0 25 0;
#X connect 36 0 12 1;
#X connect 36 0 12 0;
#X connect 37 0 38 0;
#X connect 38 0 41 0;
#X connect 40 0 37 0;
#X connect 42 0 31 0;
#X connect 43 0 20 0;
#X connect 48 0 135 0;
#X connect 50 0 12 0;
#X connect 50 0 12 1;
#X connect 51 0 12 0;
#X connect 51 0 12 1;
#X connect 52 0 49 0;
#X connect 53 0 24 1;
#X connect 55 0 59 0;
#X connect 57 0 58 0;
#X connect 58 0 56 0;
#X connect 59 0 60 0;
#X connect 59 0 61 0;
#X connect 59 0 70 0;
#X connect 60 0 54 0;
#X connect 60 0 57 0;
#X connect 61 0 62 0;
#X connect 61 0 64 0;
#X connect 63 0 71 0;
#X connect 63 0 136 0;
#X connect 64 0 65 0;
#X connect 65 0 63 0;
#X connect 68 0 69 0;
#X connect 69 0 67 0;
#X connect 70 0 66 0;
#X connect 70 0 68 0;
#X connect 73 0 77 0;
#X connect 74 0 79 0;
#X connect 75 0 78 0;
#X connect 76 0 75 1;
#X connect 76 0 74 1;
#X connect 77 0 74 0;
#X connect 77 0 75 0;
#X connect 81 0 82 0;
#X connect 82 0 26 0;
#X connect 83 0 84 1;
#X connect 84 0 88 0;
#X connect 84 0 88 1;
#X connect 86 0 84 0;
#X connect 87 0 12 1;
#X connect 87 0 12 0;
#X connect 89 0 26 1;
#X connect 90 0 83 0;
#X connect 91 0 95 0;
#X connect 92 0 86 0;
#X connect 95 0 84 1;
#X connect 96 0 97 1;
#X connect 97 0 98 0;
#X connect 97 0 98 1;
#X connect 99 0 96 0;
#X connect 100 0 104 0;
#X connect 103 0 97 0;
#X connect 104 0 97 1;
#X connect 110 0 12 0;
#X connect 110 0 12 1;
#X connect 112 0 28 0;
#X connect 113 0 28 0;
#X connect 114 0 28 0;
#X connect 115 0 28 0;
#X connect 116 0 28 0;
#X connect 117 0 116 0;
#X connect 117 0 126 0;
#X connect 118 0 115 0;
#X connect 118 0 125 0;
#X connect 119 0 114 0;
#X connect 119 0 124 0;
#X connect 120 0 113 0;
#X connect 120 0 123 0;
#X connect 121 0 112 0;
#X connect 121 0 122 0;
#X connect 127 0 20 0;
#X connect 128 0 52 1;
#X connect 129 0 130 0;
#X connect 130 0 128 0;
#X connect 133 0 0 0;
#X connect 133 0 134 0;
#X connect 134 0 55 0;
#X connect 135 0 6 0;
#X connect 137 0 138 0;
#X connect 138 0 139 1;
#X connect 139 0 140 1;
#X connect 140 0 143 0;
#X connect 140 1 143 0;
#X connect 141 0 142 0;
#X connect 142 0 137 0;
#X connect 142 0 144 0;
#X connect 144 0 139 1;
#X connect 145 0 140 0;
#X connect 146 0 145 0;
#X connect 146 0 147 0;
#X connect 148 0 140 0;
#X connect 149 0 148 0;
#X connect 149 0 150 0;
#X connect 151 0 140 0;
#X connect 152 0 151 0;
#X connect 152 0 153 0;
#X connect 154 0 139 0;
#X connect 155 0 156 0;
#X connect 156 0 158 0;
#X connect 157 0 152 0;
#X connect 158 0 157 0;
#X connect 159 0 22 0;
#X coords 0 0 0.5 0.5 0 0 0;
